<svg xmlns="http://www.w3.org/2000/svg" xmlns:xlink="http://www.w3.org/1999/xlink" version="1.1" x="0px" y="0px" viewBox="0 0 100 125" style="enable-background:new 0 0 100 100;" xml:space="preserve"><path d="M79.5,21.6c-6.3-6.3-18-5.6-29.8,1.7c-0.9,0.6-1.2,1.8-0.7,2.8c0.6,0.9,1.8,1.2,2.8,0.7  c10-6.2,20.1-7.1,24.9-2.3c6.7,6.7,2.1,22.4-9.9,34.4c-12,12-27.8,16.5-34.4,9.9c-1.9-1.9-2.9-4.5-3.1-7.7c-0.1-1.1-1-1.9-2.1-1.9  c-1.1,0.1-2,1-1.9,2.1c0.2,4.2,1.7,7.8,4.3,10.3l9.3,9.3c2.9,2.9,6.9,4.3,11.5,4.3c8.7,0,19.4-5,28.6-14.2c14-14,18.3-31.6,9.9-40.1  L79.5,21.6z M86,33.8c1.8,1.8,2.7,4.2,3,6.9l-5.3-5.3c0.1-1.3,0.1-2.6,0-3.9L86,33.8z M83.5,59l-6.4-6.4c0.9-1.4,1.8-2.9,2.5-4.3  l6.3,6.3C85.2,56.1,84.4,57.6,83.5,59z M77.5,66.8L71,60.3c1.3-1.4,2.6-2.9,3.7-4.4l6.5,6.5C80.1,63.9,78.8,65.4,77.5,66.8z   M70.4,73.2l-6.5-6.5c1.4-1.1,2.9-2.3,4.3-3.6l6.5,6.5C73.3,70.9,71.8,72.1,70.4,73.2z M62.6,78l-6.3-6.3c1.4-0.8,2.9-1.6,4.3-2.5  l6.4,6.4C65.5,76.5,64.1,77.3,62.6,78z M54.2,80.8l-5.9-5.9c1.4-0.4,2.8-0.9,4.2-1.4l6.2,6.2C57.1,80.2,55.6,80.6,54.2,80.8z   M81.4,44.4c0.6-1.4,1-2.8,1.4-4.2l5.9,5.9c-0.3,1.4-0.6,2.9-1.2,4.4L81.4,44.4z M41,75.9c0.8,0,1.6-0.1,2.5-0.1l5.4,5.4  c-2.9-0.2-5.3-1.2-7.1-3l-2.3-2.3C40,75.9,40.5,75.9,41,75.9z"/><path d="M20.6,54c0,1.1,0.9,2,2,2h9.7c1.1,0,2-0.9,2-2V42.2h11.8c1.1,0,2-0.9,2-2v-9.7c0-1.1-0.9-2-2-2H34.3V16.7  c0-1.1-0.9-2-2-2h-9.7c-1.1,0-2,0.9-2,2v11.8H8.9c-1.1,0-2,0.9-2,2v9.7c0,1.1,0.9,2,2,2h11.8V54z M10.9,38.2v-5.7h11.8  c1.1,0,2-0.9,2-2V18.7h5.7v11.8c0,1.1,0.9,2,2,2h11.8v5.7H32.3c-1.1,0-2,0.9-2,2V52h-5.7V40.2c0-1.1-0.9-2-2-2H10.9z"/><text x="0" y="115" fill="#000000" font-size="5px" font-weight="bold" font-family="'Helvetica Neue', Helvetica, Arial-Unicode, Arial, Sans-serif">Created by Jevgeni Striganov</text><text x="0" y="120" fill="#000000" font-size="5px" font-weight="bold" font-family="'Helvetica Neue', Helvetica, Arial-Unicode, Arial, Sans-serif">from the Noun Project</text></svg>