<?xml version="1.0" encoding="utf-8"?>
<!-- Generator: Adobe Illustrator 22.0.1, SVG Export Plug-In . SVG Version: 6.00 Build 0)  -->
<svg version="1.1" xmlns="http://www.w3.org/2000/svg" xmlns:xlink="http://www.w3.org/1999/xlink" x="0px" y="0px"
	 viewBox="0 0 552 408" style="enable-background:new 0 0 552 408;" xml:space="preserve">
<style type="text/css">
	.st0{fill:#ABE9F1;}
	.st1{fill:#F0F0F0;}
	.st2{opacity:0.99;fill:#FAFAFA;}
	.st3{fill:#EDE8E4;}
	.st4{fill:#039BE5;}
	.st5{fill:#70B773;}
	.st6{fill:#8BCB8E;}
	.st7{fill:#4FC3F7;}
	.st8{fill:#DBD1C8;}
	.st9{opacity:0.22;fill:#FAFAFA;}
	.st10{opacity:0.2;fill:#424242;}
	.st11{fill:#00ACC1;}
	.st12{fill:#0097A7;}
</style>
<g id="BACKGROUND">
</g>
<g id="DESIGNED_BY_FREEPIK">
	<circle class="st0" cx="277" cy="182" r="170"/>
</g>
<g id="OBJECTS">
	<g>
		<path class="st1" d="M163.1,132c5.1,0,9.3,4.2,9.3,9.3h-18.6C153.8,136.1,158,132,163.1,132z"/>
		<path class="st1" d="M189.4,124.3c9.4,0,17,7.6,17,17h-34C172.4,131.9,180,124.3,189.4,124.3z"/>
	</g>
	<g>
		<path class="st1" d="M382.8,217.6c5.1,0,9.3,4.2,9.3,9.3h-18.6C373.5,221.7,377.7,217.6,382.8,217.6z"/>
		<path class="st1" d="M409.1,209.9c9.4,0,17,7.6,17,17h-34C392.1,217.5,399.7,209.9,409.1,209.9z"/>
	</g>
	<g>
		<path class="st1" d="M473.5,190.7c5.1,0,9.3,4.2,9.3,9.3h-18.6C464.3,194.9,468.4,190.7,473.5,190.7z"/>
		<path class="st1" d="M499.8,183c9.4,0,17,7.6,17,17h-34C482.8,190.6,490.4,183,499.8,183z"/>
	</g>
	<g>
		<polygon class="st2" points="543.7,393.8 7,393.8 78.3,273.5 483.6,273.5 		"/>
		<path class="st3" d="M154.2,307.1l-8.6,24.2h94.1l4.1-29.8h-73C168.5,304.4,161.9,306.6,154.2,307.1z"/>
		<path class="st3" d="M247.7,273.5h-81.4l-7.2,20.3c7.1,0.5,12.1,2.6,12.6,5.3h72.5L247.7,273.5z"/>
		<path class="st4" d="M164.8,300.3c0.8-2.4-3.7-4.3-9.9-4.3s-12.1,1.9-13.1,4.3c-0.9,2.4,3.5,4.3,9.9,4.3S164,302.7,164.8,300.3z"
			/>
		<path class="st5" d="M193.4,289.7c0.4-1.6-2.8-2.9-7.1-2.9s-8.3,1.3-8.8,2.9c-0.5,1.6,2.7,2.9,7.1,2.9S193,291.3,193.4,289.7z"/>
		<polygon class="st3" points="137.2,334.3 42.5,334.3 33.8,348.9 131.8,348.9 		"/>
		<polygon class="st3" points="250.9,299.1 352.2,299.1 348.7,273.5 254,273.5 		"/>
		<polygon class="st6" points="356.9,334.3 144.5,334.3 129,377.7 362.7,377.7 		"/>
		<polygon class="st6" points="483.7,273.5 418.2,273.5 436.8,331.3 512.4,331.3 		"/>
		<path class="st3" d="M61.9,301.6l-17.6,29.8h94.1l9-24.2c-7.3-0.5-12.3-2.8-12.5-5.5H61.9z"/>
		<polygon class="st3" points="352.5,301.6 250.5,301.6 246.9,331.3 356.5,331.3 		"/>
		<polygon class="st3" points="127.7,381.3 123.3,393.8 364.8,393.8 363.2,381.3 		"/>
		<polygon class="st3" points="364.2,334.3 373.2,393.8 448.5,393.8 430.4,334.3 		"/>
		<polygon class="st7" points="437.7,334.3 456.8,393.8 543.4,393.8 513.8,334.3 		"/>
		<polygon class="st3" points="419.7,299.1 411.9,273.5 355,273.5 358.9,299.1 		"/>
		<polygon class="st3" points="420.5,301.6 359.3,301.6 363.8,331.3 429.5,331.3 		"/>
		<g>
			<path class="st5" d="M64.1,314.6c-1.9,0-3.7,0.6-4.2,1.3c-0.4,0.7,0.8,1.3,2.7,1.3c1.9,0,3.8-0.6,4.2-1.3
				C67.1,315.2,65.9,314.6,64.1,314.6z"/>
			<path class="st5" d="M78.2,314.6c-1.9,0-3.7,0.6-4.1,1.3c-0.4,0.7,0.8,1.3,2.7,1.3c1.9,0,3.7-0.6,4.1-1.3
				C81.3,315.2,80.1,314.6,78.2,314.6z"/>
			<path class="st5" d="M92.3,314.6c-1.9,0-3.7,0.6-4.1,1.3c-0.4,0.7,0.9,1.3,2.7,1.3c1.9,0,3.7-0.6,4.1-1.3
				C95.4,315.2,94.2,314.6,92.3,314.6z"/>
			<path class="st5" d="M106.4,314.6c-1.9,0-3.7,0.6-4,1.3c-0.3,0.7,0.9,1.3,2.8,1.3c1.9,0,3.7-0.6,4-1.3
				C109.6,315.2,108.3,314.6,106.4,314.6z"/>
			<path class="st5" d="M120.5,314.6c-1.9,0-3.7,0.6-4,1.3c-0.3,0.7,0.9,1.3,2.8,1.3c1.9,0,3.7-0.6,4-1.3
				C123.7,315.2,122.4,314.6,120.5,314.6z"/>
			<path class="st5" d="M134.7,314.6c-1.9,0-3.6,0.6-3.9,1.3c-0.3,0.7,1,1.3,2.9,1.3c1.9,0,3.6-0.6,3.9-1.3
				C137.8,315.2,136.5,314.6,134.7,314.6z"/>
		</g>
		<polygon class="st8" points="303.6,296.7 303.3,275.5 343.1,275.5 345.6,296.7 		"/>
		<polygon class="st8" points="254,328.6 256.6,304 285.9,304 285.1,328.6 		"/>
		<polygon class="st8" points="202.5,328.6 208.1,304 237.1,304 233.3,328.6 		"/>
		<polygon class="st8" points="380.4,390.3 374.9,357.3 430.2,357.3 439.7,390.3 		"/>
		<polygon class="st8" points="373.5,348.9 371.9,339.3 425,339.3 427.8,348.9 		"/>
		<polygon class="st8" points="364.8,296.7 363,285.8 409.6,285.8 412.7,296.7 		"/>
		<polygon class="st8" points="370.1,328.6 367,309.8 416.5,309.8 421.9,328.6 		"/>
		<polygon class="st8" points="180.5,304 159,311.8 157.2,317.2 193.8,317.2 197.2,304 		"/>
		<polygon class="st8" points="103.9,275.5 83.2,275.5 71,296.7 92.9,296.7 		"/>
		<polygon class="st8" points="171.4,275.5 168.9,282.8 206.4,282.8 203,296.7 238.2,296.7 241.5,275.5 		"/>
		<polygon class="st8" points="153.3,328.6 156.2,320.1 193.1,320.1 190.9,328.6 		"/>
		<polygon class="st9" points="544.3,393.8 8.2,393.8 79.5,273.5 483.7,273.5 		"/>
	</g>
	<ellipse class="st10" cx="103.9" cy="331.4" rx="30.3" ry="8"/>
	<path class="st11" d="M103.9,211.6C77.5,211.6,56,233,56,259.5c0,26.4,47.9,72,47.9,72s47.9-45.5,47.9-72
		C151.8,233,130.4,211.6,103.9,211.6z M103.9,286.3c-14.8,0-26.9-12-26.9-26.9c0-14.8,12-26.9,26.9-26.9c14.8,0,26.9,12,26.9,26.9
		C130.8,274.3,118.8,286.3,103.9,286.3z"/>
	<path class="st12" d="M103.9,227.4c-17.7,0-32.1,14.4-32.1,32.1c0,17.7,14.4,32.1,32.1,32.1c17.7,0,32.1-14.4,32.1-32.1
		C136,241.7,121.6,227.4,103.9,227.4z M103.9,281.1c-11.9,0-21.6-9.7-21.6-21.6c0-11.9,9.7-21.6,21.6-21.6
		c11.9,0,21.6,9.7,21.6,21.6C125.6,271.4,115.9,281.1,103.9,281.1z"/>
	<path class="st10" d="M470.1,389.5c0,3.2-9.7,5.7-21.7,5.7c-12,0-21.7-2.6-21.7-5.7s9.7-5.7,21.7-5.7
		C460.4,383.8,470.1,386.4,470.1,389.5z"/>
	<path class="st11" d="M448.5,303.8c-18.9,0-34.3,15.3-34.3,34.3c0,18.9,34.3,51.5,34.3,51.5s34.3-32.6,34.3-51.5
		C482.7,319.1,467.4,303.8,448.5,303.8z M448.5,357.3c-10.6,0-19.2-8.6-19.2-19.2c0-10.6,8.6-19.2,19.2-19.2
		c10.6,0,19.2,8.6,19.2,19.2C467.7,348.7,459.1,357.3,448.5,357.3z"/>
	<path class="st12" d="M448.5,315.1c-12.7,0-23,10.3-23,23c0,12.7,10.3,23,23,23c12.7,0,23-10.3,23-23
		C471.4,325.4,461.1,315.1,448.5,315.1z M448.5,353.5c-8.5,0-15.5-6.9-15.5-15.5c0-8.5,6.9-15.5,15.5-15.5c8.5,0,15.5,6.9,15.5,15.5
		C463.9,346.6,457,353.5,448.5,353.5z"/>
	<ellipse class="st10" cx="287.2" cy="293.7" rx="61.5" ry="16.2"/>
	<path class="st11" d="M277.2,50.4c-53.7,0-97.2,43.5-97.2,97.2c0,53.7,97.2,146.2,97.2,146.2s97.2-92.5,97.2-146.2
		C374.4,93.9,330.9,50.4,277.2,50.4z M277.2,202.1c-30.1,0-54.5-24.4-54.5-54.5c0-30.1,24.4-54.5,54.5-54.5
		c30.1,0,54.5,24.4,54.5,54.5C331.7,177.7,307.3,202.1,277.2,202.1z"/>
	<path class="st12" d="M277.2,82.4c-36,0-65.1,29.2-65.1,65.1c0,36,29.2,65.1,65.1,65.1c36,0,65.1-29.2,65.1-65.1
		C342.3,111.6,313.2,82.4,277.2,82.4z M277.2,191.5c-24.3,0-43.9-19.7-43.9-43.9c0-24.3,19.7-43.9,43.9-43.9
		c24.3,0,43.9,19.7,43.9,43.9C321.1,171.8,301.5,191.5,277.2,191.5z"/>
	<g>
		<path class="st1" d="M391.6,142.1c-13.1,0-23.7,10.6-23.7,23.7h47.4C415.2,152.7,404.6,142.1,391.6,142.1z"/>
		<path class="st1" d="M282.3,151.1c-8.1,0-14.7,6.6-14.7,14.7H297C297,157.6,290.4,151.1,282.3,151.1z"/>
		<path class="st1" d="M332.4,130.3c-19.6,0-35.4,15.9-35.4,35.4h70.9C367.9,146.2,352,130.3,332.4,130.3z"/>
	</g>
	<g>
		<path class="st1" d="M107.1,159.2c-5.7,0-10.3,4.6-10.3,10.3h20.7C117.4,163.9,112.8,159.2,107.1,159.2z"/>
		<path class="st1" d="M77.8,150.6c-10.5,0-18.9,8.5-18.9,18.9h37.8C96.8,159.1,88.3,150.6,77.8,150.6z"/>
	</g>
	<g>
		<path class="st1" d="M172.2,91c-5.7,0-10.3,4.6-10.3,10.3h20.7C182.6,95.7,177.9,91,172.2,91z"/>
		<path class="st1" d="M143,82.4c-10.5,0-18.9,8.5-18.9,18.9h37.8C161.9,90.9,153.4,82.4,143,82.4z"/>
	</g>
	<g>
		<path class="st1" d="M413.3,59c-5.7,0-10.3,4.6-10.3,10.3h20.7C423.6,63.6,419,59,413.3,59z"/>
		<path class="st1" d="M384,50.4c-10.5,0-18.9,8.5-18.9,18.9H403C403,58.8,394.5,50.4,384,50.4z"/>
	</g>
	<g>
		<path class="st1" d="M177.7,197.6c-4.4,0-8,3.6-8,8h16C185.7,201.1,182.1,197.6,177.7,197.6z"/>
		<path class="st1" d="M155.2,190.9c-8.1,0-14.6,6.5-14.6,14.6h29.2C169.8,197.5,163.2,190.9,155.2,190.9z"/>
	</g>
	<g>
		<path class="st1" d="M488.1,128.4c-5.7,0-10.3,4.6-10.3,10.3h20.7C498.4,133.1,493.8,128.4,488.1,128.4z"/>
		<path class="st1" d="M458.8,119.8c-10.5,0-18.9,8.5-18.9,18.9h37.8C477.7,128.3,469.3,119.8,458.8,119.8z"/>
	</g>
	<path class="st1" d="M157.2,168.9h-1.4v-1.4c0-0.4-0.3-0.6-0.6-0.6l0,0c-0.4,0-0.6,0.3-0.6,0.6v1.4h-1.4c-0.4,0-0.6,0.3-0.6,0.6
		c0,0.4,0.3,0.6,0.6,0.6h1.4v1.4c0,0.4,0.3,0.6,0.6,0.6l0,0c0.4,0,0.6-0.3,0.6-0.6v-1.4h1.4c0.4,0,0.6-0.3,0.6-0.6
		C157.8,169.2,157.5,168.9,157.2,168.9z"/>
	<path class="st1" d="M190.4,185.1H189v-1.4c0-0.4-0.3-0.6-0.6-0.6l0,0c-0.4,0-0.6,0.3-0.6,0.6v1.4h-1.4c-0.4,0-0.6,0.3-0.6,0.6
		c0,0.4,0.3,0.6,0.6,0.6h1.4v1.4c0,0.4,0.3,0.6,0.6,0.6l0,0c0.4,0,0.6-0.3,0.6-0.6v-1.4h1.4c0.4,0,0.6-0.3,0.6-0.6
		C191,185.4,190.8,185.1,190.4,185.1z"/>
	<path class="st1" d="M269.7,126.3h-1.4v-1.4c0-0.4-0.3-0.6-0.6-0.6l0,0c-0.4,0-0.6,0.3-0.6,0.6v1.4h-1.4c-0.4,0-0.6,0.3-0.6,0.6
		s0.3,0.6,0.6,0.6h1.4v1.4c0,0.4,0.3,0.6,0.6,0.6l0,0c0.4,0,0.6-0.3,0.6-0.6v-1.4h1.4c0.4,0,0.6-0.3,0.6-0.6S270,126.3,269.7,126.3z
		"/>
	<path class="st1" d="M301,133.3h-1.4v-1.4c0-0.4-0.3-0.6-0.6-0.6l0,0c-0.4,0-0.6,0.3-0.6,0.6v1.4H297c-0.4,0-0.6,0.3-0.6,0.6
		c0,0.4,0.3,0.6,0.6,0.6h1.4v1.4c0,0.4,0.3,0.6,0.6,0.6l0,0c0.4,0,0.6-0.3,0.6-0.6v-1.4h1.4c0.4,0,0.6-0.3,0.6-0.6
		C301.7,133.6,301.4,133.3,301,133.3z"/>
	<path class="st1" d="M401.8,123.6h-1.4v-1.4c0-0.4-0.3-0.6-0.6-0.6l0,0c-0.4,0-0.6,0.3-0.6,0.6v1.4h-1.4c-0.4,0-0.6,0.3-0.6,0.6
		c0,0.4,0.3,0.6,0.6,0.6h1.4v1.4c0,0.4,0.3,0.6,0.6,0.6l0,0c0.4,0,0.6-0.3,0.6-0.6v-1.4h1.4c0.4,0,0.6-0.3,0.6-0.6
		C402.5,123.9,402.2,123.6,401.8,123.6z"/>
	<path class="st1" d="M435,111.2h-1.4v-1.4c0-0.4-0.3-0.6-0.6-0.6l0,0c-0.4,0-0.6,0.3-0.6,0.6v1.4H431c-0.4,0-0.6,0.3-0.6,0.6
		c0,0.4,0.3,0.6,0.6,0.6h1.4v1.4c0,0.4,0.3,0.6,0.6,0.6l0,0c0.4,0,0.6-0.3,0.6-0.6v-1.4h1.4c0.4,0,0.6-0.3,0.6-0.6
		C435.7,111.5,435.4,111.2,435,111.2z"/>
	<path class="st1" d="M379.6,84.5h-1.4v-1.4c0-0.4-0.3-0.6-0.6-0.6l0,0c-0.4,0-0.6,0.3-0.6,0.6v1.4h-1.4c-0.4,0-0.6,0.3-0.6,0.6
		s0.3,0.6,0.6,0.6h1.4v1.4c0,0.4,0.3,0.6,0.6,0.6l0,0c0.4,0,0.6-0.3,0.6-0.6v-1.4h1.4c0.4,0,0.6-0.3,0.6-0.6S379.9,84.5,379.6,84.5z
		"/>
	<path class="st1" d="M409.3,99.1h-1.4v-1.4c0-0.4-0.3-0.6-0.6-0.6l0,0c-0.4,0-0.6,0.3-0.6,0.6v1.4h-1.4c-0.4,0-0.6,0.3-0.6,0.6
		c0,0.4,0.3,0.6,0.6,0.6h1.4v1.4c0,0.4,0.3,0.6,0.6,0.6l0,0c0.4,0,0.6-0.3,0.6-0.6v-1.4h1.4c0.4,0,0.6-0.3,0.6-0.6
		C409.9,99.4,409.6,99.1,409.3,99.1z"/>
	<path class="st1" d="M475.6,96.5h-1.4v-1.4c0-0.4-0.3-0.6-0.6-0.6l0,0c-0.4,0-0.6,0.3-0.6,0.6v1.4h-1.4c-0.4,0-0.6,0.3-0.6,0.6
		s0.3,0.6,0.6,0.6h1.4v1.4c0,0.4,0.3,0.6,0.6,0.6l0,0c0.4,0,0.6-0.3,0.6-0.6v-1.4h1.4c0.4,0,0.6-0.3,0.6-0.6S475.9,96.5,475.6,96.5z
		"/>
	<path class="st1" d="M396.5,190.9h-1.4v-1.4c0-0.4-0.3-0.6-0.6-0.6l0,0c-0.4,0-0.6,0.3-0.6,0.6v1.4h-1.4c-0.4,0-0.6,0.3-0.6,0.6
		c0,0.4,0.3,0.6,0.6,0.6h1.4v1.4c0,0.4,0.3,0.6,0.6,0.6l0,0c0.4,0,0.6-0.3,0.6-0.6v-1.4h1.4c0.4,0,0.6-0.3,0.6-0.6
		C397.1,191.1,396.8,190.9,396.5,190.9z"/>
	<path class="st1" d="M427.5,182.5h-1.4v-1.4c0-0.4-0.3-0.6-0.6-0.6l0,0c-0.4,0-0.6,0.3-0.6,0.6v1.4h-1.4c-0.4,0-0.6,0.3-0.6,0.6
		s0.3,0.6,0.6,0.6h1.4v1.4c0,0.4,0.3,0.6,0.6,0.6l0,0c0.4,0,0.6-0.3,0.6-0.6v-1.4h1.4c0.4,0,0.6-0.3,0.6-0.6
		S427.9,182.5,427.5,182.5z"/>
	<path class="st1" d="M358.5,237.2h-1.4v-1.4c0-0.4-0.3-0.6-0.6-0.6h0c-0.4,0-0.6,0.3-0.6,0.6v1.4h-1.4c-0.4,0-0.6,0.3-0.6,0.6
		c0,0.4,0.3,0.6,0.6,0.6h1.4v1.4c0,0.4,0.3,0.6,0.6,0.6h0c0.4,0,0.6-0.3,0.6-0.6v-1.4h1.4c0.4,0,0.6-0.3,0.6-0.6
		C359.2,237.5,358.9,237.2,358.5,237.2z"/>
	<path class="st1" d="M447.8,216.9h-1.4v-1.4c0-0.4-0.3-0.6-0.6-0.6l0,0c-0.4,0-0.6,0.3-0.6,0.6v1.4h-1.4c-0.4,0-0.6,0.3-0.6,0.6
		c0,0.4,0.3,0.6,0.6,0.6h1.4v1.4c0,0.4,0.3,0.6,0.6,0.6l0,0c0.4,0,0.6-0.3,0.6-0.6v-1.4h1.4c0.4,0,0.6-0.3,0.6-0.6
		C448.5,217.2,448.2,216.9,447.8,216.9z"/>
	<path class="st1" d="M458.2,165.1h-1.4v-1.4c0-0.4-0.3-0.6-0.6-0.6l0,0c-0.4,0-0.6,0.3-0.6,0.6v1.4h-1.4c-0.4,0-0.6,0.3-0.6,0.6
		c0,0.4,0.3,0.6,0.6,0.6h1.4v1.4c0,0.4,0.3,0.6,0.6,0.6l0,0c0.4,0,0.6-0.3,0.6-0.6v-1.4h1.4c0.4,0,0.6-0.3,0.6-0.6
		C458.8,165.4,458.5,165.1,458.2,165.1z"/>
	<path class="st1" d="M139.6,136h-1.4v-1.4c0-0.4-0.3-0.6-0.6-0.6l0,0c-0.4,0-0.6,0.3-0.6,0.6v1.4h-1.4c-0.4,0-0.6,0.3-0.6,0.6
		c0,0.4,0.3,0.6,0.6,0.6h1.4v1.4c0,0.4,0.3,0.6,0.6,0.6l0,0c0.4,0,0.6-0.3,0.6-0.6v-1.4h1.4c0.4,0,0.6-0.3,0.6-0.6
		C140.2,136.3,140,136,139.6,136z"/>
	<path class="st1" d="M187.7,79.1h-1.4v-1.4c0-0.4-0.3-0.6-0.6-0.6l0,0c-0.4,0-0.6,0.3-0.6,0.6v1.4h-1.4c-0.4,0-0.6,0.3-0.6,0.6
		s0.3,0.6,0.6,0.6h1.4v1.4c0,0.4,0.3,0.6,0.6,0.6l0,0c0.4,0,0.6-0.3,0.6-0.6v-1.4h1.4c0.4,0,0.6-0.3,0.6-0.6S188.1,79.1,187.7,79.1z
		"/>
	<path class="st1" d="M97.8,119.2h-1.4v-1.4c0-0.4-0.3-0.6-0.6-0.6l0,0c-0.4,0-0.6,0.3-0.6,0.6v1.4h-1.4c-0.4,0-0.6,0.3-0.6,0.6
		s0.3,0.6,0.6,0.6h1.4v1.4c0,0.4,0.3,0.6,0.6,0.6l0,0c0.4,0,0.6-0.3,0.6-0.6v-1.4h1.4c0.4,0,0.6-0.3,0.6-0.6S98.2,119.2,97.8,119.2z
		"/>
	<path class="st1" d="M121.2,182.4h-1.4V181c0-0.4-0.3-0.6-0.6-0.6l0,0c-0.4,0-0.6,0.3-0.6,0.6v1.4h-1.4c-0.4,0-0.6,0.3-0.6,0.6
		c0,0.4,0.3,0.6,0.6,0.6h1.4v1.4c0,0.4,0.3,0.6,0.6,0.6l0,0c0.4,0,0.6-0.3,0.6-0.6v-1.4h1.4c0.4,0,0.6-0.3,0.6-0.6
		C121.8,182.6,121.6,182.4,121.2,182.4z"/>
	<path class="st1" d="M84.3,194.7h-1.4v-1.4c0-0.4-0.3-0.6-0.6-0.6l0,0c-0.4,0-0.6,0.3-0.6,0.6v1.4h-1.4c-0.4,0-0.6,0.3-0.6,0.6
		c0,0.4,0.3,0.6,0.6,0.6h1.4v1.4c0,0.4,0.3,0.6,0.6,0.6l0,0c0.4,0,0.6-0.3,0.6-0.6V196h1.4c0.4,0,0.6-0.3,0.6-0.6
		C85,195,84.7,194.7,84.3,194.7z"/>
	<path class="st1" d="M179.2,226.7h-1.4v-1.4c0-0.4-0.3-0.6-0.6-0.6l0,0c-0.4,0-0.6,0.3-0.6,0.6v1.4h-1.4c-0.4,0-0.6,0.3-0.6,0.6
		c0,0.4,0.3,0.6,0.6,0.6h1.4v1.4c0,0.4,0.3,0.6,0.6,0.6l0,0c0.4,0,0.6-0.3,0.6-0.6V228h1.4c0.4,0,0.6-0.3,0.6-0.6
		C179.8,227,179.5,226.7,179.2,226.7z"/>
</g>
</svg>
