<?xml version="1.0" encoding="utf-8"?>
<!-- Generator: Adobe Illustrator 22.0.1, SVG Export Plug-In . SVG Version: 6.00 Build 0)  -->
<svg version="1.1" id="Capa_1" xmlns="http://www.w3.org/2000/svg" xmlns:xlink="http://www.w3.org/1999/xlink" x="0px" y="0px"
	 viewBox="0 0 125 125" style="enable-background:new 0 0 125 125;" xml:space="preserve">
<style type="text/css">
	.st0{fill:#FFFFFF;}
	.st1{fill:url(#SVGID_1_);}
	.st2{fill:url(#SVGID_2_);}
	.st3{fill:#14C5AE;}
	.st4{fill:#2185A9;}
</style>
<image style="overflow:visible;" width="115" height="115" xlink:href="locales.png"  transform="matrix(1 0 0 1 112 -81)">
</image>
<g>
	<g>
		<g>
			<path class="st0" d="M58.7,42.7v9.3H7.2v-9.3H58.7 M62,37.6h-58c-1,0-1.8,0.8-1.8,1.8v15.8c0,1,0.8,1.8,1.8,1.8h58
				c1,0,1.8-0.8,1.8-1.8V39.4C63.8,38.4,63,37.6,62,37.6L62,37.6z"/>
			<path class="st0" d="M116.1,33.2l-13.6-13.4c-2.5-2.5-5.7-4.3-9.3-5.2c-10.2-3.1-24.3-0.8-37.9,10.7c-1.2,1.1-1.4,2.9-0.4,4.2
				c0.6,0.7,1.4,1,2.3,1c0.7,0,1.3-0.2,1.9-0.7c0.9-0.8,1.9-1.5,2.8-2.2c0.2-0.1,0.4-0.1,0.6-0.2c10.8-6.7,21.6-9.1,29.3-7
				c2.8,0.9,5.2,2.3,7,4.2c0.1,0.1,0.2,0.2,0.3,0.2c8.7,10.1,2,32-14.9,48.9C66.8,91,44,97.5,34.4,88c-0.3-0.3-0.6-0.6-0.9-1
				c0-0.1-0.1-0.1-0.1-0.2c-0.3-0.4-0.6-0.7-0.8-1.1c-1.6-2.4-2.4-5.4-2.6-8.8c0-0.1,0-0.1,0-0.2c-0.1-2.5,0.2-5.2,0.9-8.2
				c0.3-1.6-0.7-3.2-2.3-3.5c-1.6-0.3-3.2,0.7-3.5,2.3c-2.2,10-0.8,17.9,3.9,23.4c0.2,0.2,0.5,0.4,0.7,0.6c0.2,0.3,0.5,0.5,0.7,0.8
				l13.4,13.4c4.2,4.2,10,6.2,16.6,6.2c12.6,0,28-7.2,41.3-20.5C122,70.9,128.2,45.5,116.1,33.2z M108.6,34.1l3.3,3.3
				c2.6,2.6,3.9,6.1,4.3,10l-7.7-7.7C108.7,37.8,108.7,35.9,108.6,34.1z M48,101.5l-3.3-3.3c0.7,0,1.4,0,2.2,0
				c1.2,0,2.3-0.1,3.6-0.1l7.8,7.8C54.1,105.6,50.6,104.1,48,101.5z M65.9,105.3l-8.5-8.5c2-0.6,4-1.3,6.1-2l9,9
				C70.1,104.4,68,105,65.9,105.3z M78.1,101.2L69,92.1c2-1.2,4.2-2.3,6.2-3.6l9.2,9.2C82.3,99.1,80.2,100.2,78.1,101.2z M89.3,94.3
				l-9.4-9.4c2-1.6,4.2-3.3,6.2-5.2l9.4,9.4C93.5,91,91.4,92.7,89.3,94.3z M99.6,85.1l-9.4-9.4c1.9-2,3.8-4.2,5.3-6.4l9.4,9.4
				C103.4,80.9,101.5,83,99.6,85.1z M108.3,73.8L99,64.6c1.3-2,2.6-4.2,3.6-6.2l9.1,9.1C110.7,69.6,109.6,71.8,108.3,73.8z
				 M114,61.5l-8.8-8.8c0.9-2,1.4-4,2-6.1l8.5,8.5C115.3,57.2,114.9,59.4,114,61.5z"/>
		</g>
	</g>
	<g>
		<g>
			<linearGradient id="SVGID_1_" gradientUnits="userSpaceOnUse" x1="99.8418" y1="16.9817" x2="27.5652" y2="89.2583">
				<stop  offset="0" style="stop-color:#14C5AE"/>
				<stop  offset="1" style="stop-color:#2185A9"/>
			</linearGradient>
			<path class="st1" d="M58.7,42.7v9.3H7.2v-9.3H58.7 M62,37.6h-58c-1,0-1.8,0.8-1.8,1.8v15.8c0,1,0.8,1.8,1.8,1.8h58
				c1,0,1.8-0.8,1.8-1.8V39.4C63.8,38.4,63,37.6,62,37.6L62,37.6z"/>
			<linearGradient id="SVGID_2_" gradientUnits="userSpaceOnUse" x1="99.8418" y1="16.9817" x2="27.5652" y2="89.2583">
				<stop  offset="0" style="stop-color:#14C5AE"/>
				<stop  offset="1" style="stop-color:#2185A9"/>
			</linearGradient>
			<path class="st2" d="M116.1,33.2l-13.6-13.4c-2.5-2.5-5.7-4.3-9.3-5.2c-10.2-3.1-24.3-0.8-37.9,10.7c-1.2,1.1-1.4,2.9-0.4,4.2
				c0.6,0.7,1.4,1,2.3,1c0.7,0,1.3-0.2,1.9-0.7c0.9-0.8,1.9-1.5,2.8-2.2c0.2-0.1,0.4-0.1,0.6-0.2c10.8-6.7,21.6-9.1,29.3-7
				c2.8,0.9,5.2,2.3,7,4.2c0.1,0.1,0.2,0.2,0.3,0.2c8.7,10.1,2,32-14.9,48.9C66.8,91,44,97.5,34.4,88c-0.3-0.3-0.6-0.6-0.9-1
				c0-0.1-0.1-0.1-0.1-0.2c-0.3-0.4-0.6-0.7-0.8-1.1c-1.6-2.4-2.4-5.4-2.6-8.8c0-0.1,0-0.1,0-0.2c-0.1-2.5,0.2-5.2,0.9-8.2
				c0.3-1.6-0.7-3.2-2.3-3.5c-1.6-0.3-3.2,0.7-3.5,2.3c-2.2,10-0.8,17.9,3.9,23.4c0.2,0.2,0.5,0.4,0.7,0.6c0.2,0.3,0.5,0.5,0.7,0.8
				l13.4,13.4c4.2,4.2,10,6.2,16.6,6.2c12.6,0,28-7.2,41.3-20.5C122,70.9,128.2,45.5,116.1,33.2z M108.6,34.1l3.3,3.3
				c2.6,2.6,3.9,6.1,4.3,10l-7.7-7.7C108.7,37.8,108.7,35.9,108.6,34.1z M48,101.5l-3.3-3.3c0.7,0,1.4,0,2.2,0
				c1.2,0,2.3-0.1,3.6-0.1l7.8,7.8C54.1,105.6,50.6,104.1,48,101.5z M65.9,105.3l-8.5-8.5c2-0.6,4-1.3,6.1-2l9,9
				C70.1,104.4,68,105,65.9,105.3z M78.1,101.2L69,92.1c2-1.2,4.2-2.3,6.2-3.6l9.2,9.2C82.3,99.1,80.2,100.2,78.1,101.2z M89.3,94.3
				l-9.4-9.4c2-1.6,4.2-3.3,6.2-5.2l9.4,9.4C93.5,91,91.4,92.7,89.3,94.3z M99.6,85.1l-9.4-9.4c1.9-2,3.8-4.2,5.3-6.4l9.4,9.4
				C103.4,80.9,101.5,83,99.6,85.1z M108.3,73.8L99,64.6c1.3-2,2.6-4.2,3.6-6.2l9.1,9.1C110.7,69.6,109.6,71.8,108.3,73.8z
				 M114,61.5l-8.8-8.8c0.9-2,1.4-4,2-6.1l8.5,8.5C115.3,57.2,114.9,59.4,114,61.5z"/>
		</g>
	</g>
</g>
<rect x="66.8" y="-53.3" class="st3" width="14.5" height="23.5"/>
<rect x="83.8" y="-53.3" class="st4" width="14.5" height="23.5"/>
</svg>
